# xmcd
#
# Track frame offsets: 
#        182
#        15785
#        35035
#        54725
#        68595
#        84387
#        105290
#        118142
#        131242
#        149445
#
# Disc length: 2236 seconds
#
# Revision: 2
# Processed by: cddbd v1.4PL0 Copyright (c) Steve Scherf et al.
# Submitted via: ExactAudioCopy v0.90a11
#
DISCID=8308ba0a
DTITLE=Ketchum, Hal - Sure Love
DYEAR=1900
DGENRE=
TTITLE0=Sure Love
TTITLE1=Mama Knows the Highway
TTITLE2=You Lovin' Me
TTITLE3=Hearts Are Gonna Roll
TTITLE4=Softer Than A Whisper
TTITLE5=Ghost Town
TTITLE6=Daddy's Oldsmobile
TTITLE7=Till The Coast Is Clear
TTITLE8=Trail Of Tears
TTITLE9=Some Place Far Away
EXTD=
EXTT0=
EXTT1=
EXTT2=
EXTT3=
EXTT4=
EXTT5=
EXTT6=
EXTT7=
EXTT8=
EXTT9=
PLAYORDER=
